<svg width="37" height="29" viewBox="0 0 37 29" fill="none" xmlns="http://www.w3.org/2000/svg">
<path d="M21.44 26.9399H23.07V25.3101H24.7V22.0601H26.33V17.1801H27.96V13.9301H34.47V12.3H36.1V9.05005H34.47V7.42004H19.82V5.79004H21.45V0.910034H16.57V2.54004H14.94V4.17004H11.69V5.80005H8.44V7.43005H5.19V9.06006H0.309998V25.33H5.19V26.96H10.07V28.59H21.46V26.96L21.44 26.9399Z" fill="white"/>
<path d="M14.93 7.41003H34.46V9.04004H14.93V7.41003ZM34.46 9.03003H36.09V12.28H34.46V9.03003ZM19.81 12.29H34.46V13.92H19.81V12.29ZM26.32 13.92H27.95V17.17H26.32V13.92ZM19.81 17.17H24.69V18.8H19.81V17.17ZM24.69 17.17H26.32V22.05H24.69V17.17ZM18.19 22.05H23.07V23.6801H18.19V22.05Z" fill="black"/>
<path d="M23.07 22.05H24.7V25.3H23.07V22.05ZM21.44 25.3101H23.07V26.9399H21.44V25.3101ZM10.05 26.9399H21.44V28.5699H10.05V26.9399ZM5.16998 25.3101H10.05V26.9399H5.16998V25.3101ZM0.280029 23.6801H5.15997V25.3101H0.280029V23.6801ZM0.280029 9.03003H1.90997V23.6801H0.280029V9.03003ZM18.19 5.78003H19.82V7.41003H18.19V5.78003Z" fill="black"/>
<path d="M19.81 0.900024H21.44V5.78003H19.81V0.900024ZM16.56 0.900024H19.81V2.53003H16.56V0.900024ZM14.93 2.52002H16.56V4.15002H14.93V2.52002ZM11.68 4.15002H14.93V5.78003H11.68V4.15002ZM8.41998 5.78003H11.67V7.41003H8.41998V5.78003ZM5.16998 7.41003H8.41998V9.04004H5.16998V7.41003ZM1.90997 9.03003H5.15997V10.66H1.90997V9.03003Z" fill="black"/>
</svg>
