<?xml version="1.0" encoding="UTF-8"?>
<svg id="Layer_1" xmlns="http://www.w3.org/2000/svg" viewBox="0 0 604.66 42.73">
    <defs>
        <style>
            .cls-1 {
                fill: #00a54e;
            }

            .cls-2 {
                fill: #00adcc;
            }
        </style>
    </defs>
    <path class="cls-2"
        d="M326.12,.2c.78-.05,1.57-.15,2.35-.15,91.28,0,182.55,.02,273.83,.04,.79,0,1.57,.06,2.36,.09-2.78,5-5.9,9.63-8.89,14.41-3.13,5-6.35,9.9-9.5,14.87-4.79,7.55-11.01,11.41-18.22,12.67-3.2,.56-6.42,.58-9.65,.58-88.6,0-177.19,0-265.79-.02-1,0-2.01,.18-2.99-.18,.28-.55,.52-1.14,.83-1.66,4.94-8.05,9.93-16.04,14.82-24.14,5.43-9,12.3-14.64,20.85-16.51Z" />
    <path class="cls-1"
        d="M389.98,.1c-11.46,1.87-20.67,7.51-27.95,16.51-6.55,8.1-13.25,16.09-19.87,24.14-.42,.51-.74,1.1-1.11,1.66-1.05,.03-2.11,.1-3.16,.1-80.8,0-253.87,0-334.67,0-1.05,0-2.11-.06-3.16-.09-.01-8.06-.12-16.12-.01-24.18C.18,8.07,8.31,.13,18.5,0c.86-.01,1.73,0,2.59,0,90.67,0,273.61,0,364.28,0,1.53,0,3.07,.06,4.6,.09Z" />
</svg>