<?xml version="1.0" encoding="UTF-8"?><svg id="Layer_1" xmlns="http://www.w3.org/2000/svg" viewBox="0 0 794.52 276.01"><defs><style>.cls-1{fill:#b62e89;}</style></defs><rect class="cls-1" x="0" y="31.75" width="794.51" height="244.25"/><path class="cls-1" d="M101.34,178.97c-2.38,.38-4.78,.16-7.17,.17-5.75,.04-11.5,.07-17.25,0-14.45-.16-25.85,5.86-34.88,16.89-10.8,13.2-21.7,26.31-32.43,39.55-2.57,3.18-5.75,4.93-9.61,5.76v-110.59c4.03-.5,7.08-2.5,9.64-5.65,10.84-13.33,21.78-26.57,32.69-39.84,9.16-11.14,20.84-16.67,35.39-16.64,47.52,.13,95.03,.06,142.55,.03,3.45,0,6.89-.29,10.34-.44,1.66,.71,3.41,.43,5.12,.43,155.69,.01,311.39,.01,467.08,0,5.37,0,10.75-.05,16.12-.16,8.17-.18,15.64-2.55,22.41-7.16,4.36-2.97,7.52-7.13,10.84-11.07,14.11-16.7,28.09-33.5,42.12-50.26V110.59c-3.99,4.74-7.96,9.5-11.98,14.22-3.34,3.94-6.46,8.06-10.02,11.82-1.05-.03-2.11-.09-3.16-.09-122.34-.02-244.67-.03-367.01-.04-1.05,0-2.1,.1-3.15,.15-1.53-.03-3.07-.09-4.6-.09-90.67,0-181.34,0-272.01,0-.86,0-1.73,0-2.59,0-10.2,.13-18.32,8.07-18.46,18.22-.11,8.06,0,16.12,.01,24.18Z"/></svg>