<?xml version="1.0" encoding="UTF-8"?>
<svg id="Layer_1" xmlns="http://www.w3.org/2000/svg" viewBox="0 0 794.3 308.75">
    <defs>
        <style>
            .cls-1 {
                fill: #ee8d32;
            }

            .cls-2 {
                fill: #00a54e;
            }
        </style>
    </defs>
    <path class="cls-1"
        d="M794.3,0V172.8c-2.52,3.12-5.02,6.26-7.58,9.36-4.14,5.02-8.31,10.02-12.48,15.02-4.17,5-8.35,9.99-12.53,14.98-4.73,5.65-9.45,11.31-14.21,16.93-2.97,3.51-6.09,6.89-9.01,10.45-6.02,7.35-14,11.09-23.13,12.74-4.36,.79-8.78,.63-13.19,.63-110.1,0-220.21,0-330.31,0-2.1,0-4.21-.05-6.28,.41-2.77-.33-5.55-.28-8.32-.28-39.58,0-79.17,0-118.75,0-1.92,0-3.83-.07-5.75-.11,.45-.17,.88-.42,1.34-.5,6.84-1.14,12.2-4.51,16.58-9.96,9.61-11.97,19.5-23.71,29.25-35.56,9.87-12,19.7-24.04,29.58-36.04,4.82-5.84,9.44-11.85,15.26-16.81,11.93-10.18,25.35-17.15,41.02-19.48,1.24-.18,2.72,.19,3.75-.96,4.7-.05,9.4-.13,14.11-.13,85.33,0,170.66,0,255.99,0,7.1,0,14.19,.16,21.28-.4,9.43-.75,17.72-4.04,24.25-11.08,2.67-2.88,5.23-5.87,7.76-8.89,13.3-15.89,26.62-31.78,39.85-47.73,14.09-16.98,28.16-33.99,42.1-51.09,5.28-6.48,11.52-11.47,19.42-14.3Z" />
    <path class="cls-2"
        d="M0,170.5c1.42,.51,1.72-.88,2.27-1.53,4.08-4.84,8.05-9.77,12.07-14.65,4.02-4.88,7.82-9.94,13.13-13.61,6.4-4.42,13.39-6.97,21.19-7.21,1.25-.04,65.53-.01,96.43-.01,73.29,0,146.58,0,219.86,0,1.53,0,3.06,.09,4.59,.14-1.03,1.14-2.5,.77-3.75,.96-15.67,2.32-29.08,9.29-41.02,19.48-5.81,4.96-10.44,10.97-15.26,16.81-9.89,11.99-19.71,24.04-29.58,36.04-9.75,11.85-19.64,23.59-29.25,35.56-4.38,5.45-9.74,8.82-16.58,9.96-.46,.08-.89,.33-1.33,.5-17.36,.03-34.72,.07-52.09,.08-37.99,.01-75.98-.02-113.97,.02-12.71,.01-23.37,4.94-31.78,14.33-5.94,6.64-11.38,13.73-17.05,20.61-5.37,6.51-10.75,13.01-16.13,19.5-.47,.56-.78,1.39-1.75,1.28V170.5Z" />
</svg>