<?xml version="1.0" encoding="UTF-8"?><svg id="Layer_1" xmlns="http://www.w3.org/2000/svg" viewBox="0 0 794.3 255.17"><defs><style>.cls-1{fill:#e63c3d;}.cls-2{fill:#00adcc;}</style></defs><path class="cls-1" d="M794.3,124.42c-14.03,16.76-28.02,33.56-42.12,50.26-3.33,3.94-6.48,8.1-10.84,11.07-6.77,4.61-14.25,6.98-22.41,7.16-5.37,.12-10.75,.16-16.12,.16-155.69,0-311.39,0-467.08,0-1.71,0-3.46,.28-5.12-.43,6.63-1.04,12.06-3.98,16.24-9.38,4.28-5.54,8.9-10.82,13.34-16.23,15.72-19.12,31.43-38.24,47.13-57.37,9.66-11.78,21.59-20.35,36-25.31,7.19-2.47,14.63-3.79,22.27-3.81,2.07-.46,4.18-.41,6.28-.41,110.1,0,220.21,0,330.31,0,4.41,0,8.82,.16,13.19-.63,9.13-1.66,17.1-5.39,23.13-12.74,2.91-3.56,6.03-6.94,9.01-10.45,4.76-5.62,9.48-11.29,14.21-16.93,4.18-4.99,8.36-9.98,12.53-14.98,4.17-5,8.34-10,12.48-15.02,2.55-3.1,5.05-6.24,7.58-9.36V124.42Z"/><path class="cls-2" d="M0,135.94c.97,.11,1.28-.72,1.75-1.28,5.39-6.49,10.77-12.99,16.13-19.5,5.67-6.88,11.1-13.97,17.05-20.61,8.41-9.39,19.07-14.32,31.78-14.33,37.99-.04,75.98,0,113.97-.02,17.36,0,34.73-.05,52.09-.08,1.91,.04,3.83,.11,5.74,.11,39.58,0,79.17,0,118.75,0,2.78,0,5.56-.05,8.32,.28-7.64,.02-15.08,1.34-22.27,3.81-14.42,4.96-26.34,13.53-36,25.31-15.7,19.14-31.41,38.25-47.13,57.37-4.45,5.41-9.06,10.69-13.34,16.23-4.18,5.41-9.62,8.35-16.24,9.38-3.45,.15-6.9,.44-10.34,.44-47.52,.03-95.03,.1-142.55-.03-14.55-.04-26.22,5.49-35.39,16.64-10.91,13.27-21.85,26.51-32.69,39.84-2.56,3.15-5.61,5.15-9.64,5.65v-119.23Z"/></svg>