<?xml version="1.0" encoding="UTF-8"?><svg id="Layer_1" xmlns="http://www.w3.org/2000/svg" xmlns:xlink="http://www.w3.org/1999/xlink" viewBox="0 0 251.11 251.11"><defs><style>.cls-1{fill:#fff;}.cls-1,.cls-2{fill-rule:evenodd;}.cls-2{fill:url(#Degradado_sin_nombre_13);}</style><linearGradient id="Degradado_sin_nombre_13" x1="128.47" y1="15.3" x2="128.47" y2="231.19" gradientTransform="matrix(1, 0, 0, 1, 0, 0)" gradientUnits="userSpaceOnUse"><stop offset="0" stop-color="#00af4f"/><stop offset="1" stop-color="#00934b"/></linearGradient></defs><path class="cls-2" d="M128.48,15.3c-60,0-108.79,48.42-108.79,107.95,0,23.61,7.69,45.49,20.72,63.29l-13.59,40.08,41.8-13.28c17.17,11.27,37.75,17.85,59.86,17.85,59.97,0,108.78-48.42,108.78-107.94S188.45,15.3,128.48,15.3h0Z"/><path class="cls-1" d="M251.11,122.33c0,67.55-55.19,122.32-123.27,122.32-21.62,0-41.93-5.52-59.59-15.22L0,251.11l22.25-65.62c-11.23-18.44-17.68-40.06-17.68-63.16C4.57,54.77,59.75,0,127.84,0s123.27,54.77,123.27,122.33h0ZM127.84,19.48c-57.16,0-103.65,46.13-103.65,102.85,0,22.49,7.33,43.34,19.74,60.3l-12.94,38.19,39.82-12.65c16.36,10.74,35.97,17,57.03,17,57.14,0,103.64-46.13,103.64-102.83S184.98,19.48,127.84,19.48h0Zm62.25,131.02c-.76-1.25-2.78-2-5.79-3.5-3.02-1.5-17.89-8.76-20.65-9.75-2.77-1-4.8-1.5-6.8,1.5-2.02,3-7.81,9.76-9.58,11.76-1.76,2.01-3.52,2.25-6.54,.75-3.03-1.5-12.77-4.67-24.31-14.87-8.98-7.96-15.04-17.77-16.81-20.77-1.75-3-.17-4.62,1.32-6.11,1.36-1.35,3.03-3.5,4.54-5.25,1.51-1.76,2.02-3.01,3.02-5.02,1.01-2,.51-3.75-.26-5.25-.75-1.5-6.8-16.25-9.32-22.26-2.5-5.99-5.03-5.77-6.8-5.77s-5.02,.52-5.02,.52c0,0-6.06,.75-8.82,3.75-2.77,3-10.57,10.26-10.57,25s10.82,29.02,12.33,31.01c1.51,2.01,20.9,33.27,51.62,45.27,30.72,12,30.72,8,36.27,7.49,5.53-.49,17.87-7.25,20.4-14.25,2.52-7,2.52-13.01,1.77-14.25h0Zm0,0"/></svg>